<svg width="34" height="34" viewBox="0 0 34 34" fill="none" xmlns="http://www.w3.org/2000/svg">
<rect x="0.5" y="0.5" width="33" height="33" rx="7.5" stroke="white"/>
<path fill-rule="evenodd" clip-rule="evenodd" d="M17.2079 8.66675C20.9987 8.66675 24.0829 11.7742 24.0829 15.5942C24.0829 20.2901 18.7029 24.9167 17.2079 24.9167C15.7129 24.9167 10.3329 20.2901 10.3329 15.5942C10.3329 11.7742 13.4171 8.66675 17.2079 8.66675ZM17.2079 9.91675C14.1062 9.91675 11.5829 12.4642 11.5829 15.5942C11.5829 19.5767 16.2696 23.4567 17.2079 23.6634C18.1462 23.4559 22.8329 19.5759 22.8329 15.5942C22.8329 12.4642 20.3096 9.91675 17.2079 9.91675ZM17.2087 12.8334C18.7021 12.8334 19.9171 14.0484 19.9171 15.5426C19.9171 17.0359 18.7021 18.2501 17.2087 18.2501C15.7154 18.2501 14.5004 17.0359 14.5004 15.5426C14.5004 14.0484 15.7154 12.8334 17.2087 12.8334ZM17.2087 14.0834C16.4046 14.0834 15.7504 14.7376 15.7504 15.5426C15.7504 16.3467 16.4046 17.0001 17.2087 17.0001C18.0129 17.0001 18.6671 16.3467 18.6671 15.5426C18.6671 14.7376 18.0129 14.0834 17.2087 14.0834Z" fill="white"/>
</svg>
