<svg width="34" height="34" viewBox="0 0 34 34" fill="none" xmlns="http://www.w3.org/2000/svg">
<rect x="0.5" y="0.5" width="33" height="33" rx="7.5" stroke="white"/>
<path fill-rule="evenodd" clip-rule="evenodd" d="M20.8824 8.66663C23.6574 8.66663 25.7499 10.9308 25.7499 13.9333V19.6566C25.7499 21.1933 25.2066 22.5816 24.2191 23.5666C23.3333 24.4491 22.1841 24.9166 20.8958 24.9166H12.6849C11.3991 24.9166 10.2508 24.45 9.36409 23.5666C8.37659 22.5816 7.83325 21.1933 7.83325 19.6566V13.9333C7.83325 10.9308 9.92575 8.66663 12.7008 8.66663H20.8824ZM20.8824 9.91663H12.7008C10.6049 9.91663 9.08325 11.6058 9.08325 13.9333V19.6566C9.08325 20.8591 9.49659 21.9333 10.2466 22.6808C10.8933 23.3266 11.7374 23.6666 12.6874 23.6666H20.8824C20.8841 23.665 20.8908 23.6666 20.8958 23.6666C21.8466 23.6666 22.6899 23.3266 23.3366 22.6808C24.0874 21.9333 24.4999 20.8591 24.4999 19.6566V13.9333C24.4999 11.6058 22.9783 9.91663 20.8824 9.91663ZM22.1958 13.774C22.4133 14.0415 22.3724 14.4348 22.1049 14.6531L18.4016 17.6631C17.9333 18.0348 17.3733 18.2206 16.8141 18.2206C16.2566 18.2206 15.7008 18.0365 15.2358 17.6681L11.4983 14.6548C11.2291 14.4381 11.1874 14.044 11.4033 13.7756C11.6208 13.5081 12.0141 13.4656 12.2824 13.6815L16.0166 16.6915C16.4858 17.0631 17.1466 17.0631 17.6191 16.6881L21.3158 13.6831C21.5841 13.464 21.9774 13.5056 22.1958 13.774Z" fill="white"/>
</svg>
