<svg width="34" height="34" viewBox="0 0 34 34" fill="none" xmlns="http://www.w3.org/2000/svg">
<rect x="0.5" y="0.5" width="33" height="33" rx="7.5" stroke="white"/>
<path fill-rule="evenodd" clip-rule="evenodd" d="M17.3333 9C21.9283 9 25.6667 12.7383 25.6667 17.3333C25.6667 21.9283 21.9283 25.6667 17.3333 25.6667C12.7383 25.6667 9 21.9283 9 17.3333C9 12.7383 12.7383 9 17.3333 9ZM17.3333 10.25C13.4275 10.25 10.25 13.4275 10.25 17.3333C10.25 21.2392 13.4275 24.4167 17.3333 24.4167C21.2392 24.4167 24.4167 21.2392 24.4167 17.3333C24.4167 13.4275 21.2392 10.25 17.3333 10.25ZM17.051 13.2462C17.3968 13.2462 17.676 13.5262 17.676 13.8712V17.5562L20.5135 19.2478C20.8093 19.4253 20.9068 19.8087 20.7302 20.1053C20.6127 20.3012 20.4052 20.4103 20.1927 20.4103C20.0835 20.4103 19.9735 20.382 19.8727 20.3228L16.731 18.4487C16.5427 18.3353 16.426 18.1312 16.426 17.9112V13.8712C16.426 13.5262 16.706 13.2462 17.051 13.2462Z" fill="white"/>
</svg>
