<?xml version="1.0" encoding="UTF-8"?>
<svg id="Capa_2" data-name="Capa 2" xmlns="http://www.w3.org/2000/svg" xmlns:xlink="http://www.w3.org/1999/xlink" viewBox="0 0 302.53 59.29">
  <defs>
    <style>
      .cls-1 {
        fill: #2b4b78;
      }

      .cls-1, .cls-2, .cls-3, .cls-4 {
        stroke-width: 0px;
      }

      .cls-2 {
        fill: url(#Degradado_sin_nombre_4);
      }

      .cls-3 {
        fill: #e68a1f;
      }

      .cls-4 {
        fill: #2c4b78;
      }
    </style>
    <radialGradient id="Degradado_sin_nombre_4" data-name="Degradado sin nombre 4" cx="26.19" cy="26.65" fx="26.19" fy="26.65" r="18.16" gradientUnits="userSpaceOnUse">
      <stop offset=".01" stop-color="#fff"/>
      <stop offset=".06" stop-color="#fbeddd"/>
      <stop offset=".12" stop-color="#f6d6b1"/>
      <stop offset=".2" stop-color="#f1c189"/>
      <stop offset=".27" stop-color="#eeb068"/>
      <stop offset=".35" stop-color="#eba24d"/>
      <stop offset=".44" stop-color="#e89738"/>
      <stop offset=".54" stop-color="#e78f2a"/>
      <stop offset=".65" stop-color="#e68b21"/>
      <stop offset=".84" stop-color="#e68a1f"/>
    </radialGradient>
  </defs>
  <g id="Capa_2-2" data-name="Capa 2">
    <g>
      <g>
        <path class="cls-1" d="M84.68,57.75h-.27c-.57,0-1.05-.01-1.41-.04-.37-.03-.7-.08-1.01-.17s-.53-.2-.7-.34-.3-.33-.41-.58c-.11-.25-.18-.53-.21-.84-.03-.31-.05-.7-.05-1.17v-.18c0-.47.02-.86.05-1.17.03-.31.1-.59.21-.84.11-.25.24-.44.4-.58.16-.13.39-.25.69-.33s.64-.15,1.01-.18c.37-.03.85-.05,1.42-.05h.27c1.03,0,1.78.05,2.26.16.48.1.81.28.98.54.17.25.26.65.26,1.2v.18h-.83v-.11c0-.37-.06-.64-.17-.79s-.35-.27-.72-.35c-.37-.07-.97-.11-1.81-.11h-.22c-.48,0-.86,0-1.14.02-.28.01-.55.06-.79.13-.25.07-.43.15-.54.25-.11.09-.21.24-.3.45s-.14.43-.16.67-.03.56-.03.96v.11c0,.4,0,.71.03.95.02.24.07.46.15.66.08.21.18.36.29.45s.29.18.54.25c.24.07.51.11.8.13.29.01.67.02,1.15.02h.22c.53,0,.95-.01,1.26-.03.31-.02.58-.06.8-.11.22-.05.38-.13.47-.24.09-.11.16-.23.19-.36.03-.13.05-.31.05-.55v-.09h.84v.2c0,.53-.09.92-.28,1.18-.19.26-.53.44-1.03.55-.5.11-1.26.17-2.28.17Z"/>
        <path class="cls-1" d="M92.42,57.75h-.26c-.61,0-1.09-.03-1.43-.08-.34-.06-.62-.17-.83-.34-.21-.17-.35-.39-.42-.67-.07-.27-.1-.65-.1-1.15v-.15c0-.93.17-1.54.52-1.81.35-.28,1.1-.41,2.25-.41h.26c1.15,0,1.89.14,2.24.41.34.27.51.88.51,1.82v.15c0,.49-.03.87-.1,1.15-.06.27-.2.5-.41.67-.21.17-.49.29-.83.34-.34.05-.81.08-1.41.08ZM92.17,57.12h.22c.46,0,.81-.02,1.06-.05s.44-.11.59-.24c.15-.12.25-.28.29-.47s.06-.47.06-.84v-.15c0-.37-.02-.65-.06-.84s-.13-.35-.29-.47c-.15-.12-.35-.2-.59-.24-.24-.03-.59-.05-1.06-.05h-.22c-.46,0-.81.02-1.06.05-.24.03-.44.11-.59.24-.15.12-.25.28-.29.47s-.06.47-.06.84v.15c0,.37.02.65.06.84s.13.35.29.47c.15.12.35.2.59.24s.59.05,1.06.05Z"/>
        <path class="cls-1" d="M101.9,55.09v2.58h-.79v-2.4c0-.62-.11-1.02-.32-1.2-.21-.18-.69-.27-1.44-.27h-.13c-.72,0-1.23.1-1.53.31-.31.21-.46.6-.46,1.16v2.4h-.79v-4.45h.79v.86h.02c.16-.33.39-.57.7-.72.31-.15.8-.22,1.47-.22h.15c.94,0,1.56.13,1.87.39.31.26.46.78.46,1.56Z"/>
        <path class="cls-1" d="M105.59,57.75h-.21c-.71,0-1.18-.12-1.41-.37-.23-.25-.35-.76-.35-1.54v-2.05h-.88v-.57h.88v-1.16h.81v1.16h3.1v.57h-3.1v1.93c0,.6.06.99.19,1.15.13.16.42.24.89.24h.17c.5,0,.82-.07.95-.2.13-.13.2-.43.2-.89v-.35h.7v.47c0,.63-.13,1.06-.4,1.28-.27.22-.78.33-1.54.33Z"/>
        <path class="cls-1" d="M113.75,55.28v2.39h-.79v-.53h-.02c-.16.22-.39.38-.68.47-.29.09-.74.13-1.35.13h-.18c-.92,0-1.53-.09-1.83-.28-.29-.19-.44-.55-.44-1.08v-.1c0-.52.15-.87.46-1.06s.89-.27,1.74-.27h.19c.65,0,1.12.03,1.41.09.29.06.51.19.64.39h.03v-.34c0-.34-.01-.58-.04-.74-.03-.16-.11-.29-.24-.4-.13-.11-.31-.17-.52-.2-.21-.02-.54-.03-.98-.03h-.17c-.65,0-1.08.05-1.29.15-.21.1-.31.29-.31.58v.07h-.77v-.1c0-.51.17-.85.51-1.02.34-.17.97-.26,1.88-.26h.19c.39,0,.7,0,.95.02.25.02.47.05.68.11s.36.13.46.22c.1.09.19.22.27.39.07.17.12.36.15.58.02.21.03.48.03.81ZM111,57.16h.13c.75,0,1.25-.05,1.48-.16.23-.1.35-.32.35-.65v-.06c0-.33-.12-.54-.35-.63-.23-.09-.74-.13-1.53-.13h-.16c-.71,0-1.16.05-1.36.14s-.3.3-.3.63v.05c0,.35.1.57.31.66.2.09.68.14,1.44.14Z"/>
        <path class="cls-1" d="M118.27,57.75h-.13c-.69,0-1.2-.06-1.52-.17-.32-.12-.55-.33-.69-.63h-.02v.73h-.77v-6.31h.79v2.56h.02c.15-.31.38-.51.69-.62.31-.11.8-.16,1.46-.16h.17c1.04,0,1.73.14,2.06.42.33.28.49.88.49,1.81v.12c0,.92-.16,1.53-.49,1.82-.33.29-1.01.44-2.06.44ZM117.9,57.12h.22c.82,0,1.34-.1,1.56-.29.22-.19.33-.64.33-1.34v-.12c0-.69-.11-1.13-.33-1.32-.22-.19-.74-.28-1.56-.28h-.22c-.85,0-1.39.09-1.63.27s-.35.62-.35,1.33v.12c0,.69.12,1.14.35,1.33.23.19.78.29,1.63.29Z"/>
        <path class="cls-1" d="M122.87,51.37v.87h-.79v-.87h.79ZM122.87,53.22v4.45h-.79v-4.45h.79Z"/>
        <path class="cls-1" d="M125.12,51.37v6.31h-.79v-6.31h.79Z"/>
        <path class="cls-1" d="M127.36,51.37v.87h-.79v-.87h.79ZM127.36,53.22v4.45h-.79v-4.45h.79Z"/>
        <path class="cls-1" d="M134.29,51.37v6.31h-.76v-.73h-.02c-.14.31-.37.52-.69.63-.32.12-.82.17-1.52.17h-.13c-1.05,0-1.74-.14-2.06-.43-.32-.29-.49-.9-.49-1.83v-.12c0-.92.16-1.53.49-1.81.33-.28,1.01-.42,2.06-.42h.17c.66,0,1.15.05,1.47.16.32.11.54.32.67.62h.02v-2.56h.79ZM131.31,57.12h.22c.85,0,1.39-.1,1.62-.29.23-.19.35-.64.35-1.34v-.12c0-.7-.12-1.14-.35-1.33-.23-.18-.77-.27-1.62-.27h-.22c-.83,0-1.35.09-1.57.28-.22.19-.32.63-.32,1.32v.12c0,.7.11,1.15.33,1.34.22.19.74.29,1.56.29Z"/>
        <path class="cls-1" d="M140.83,55.28v2.39h-.79v-.53h-.02c-.16.22-.39.38-.68.47-.29.09-.74.13-1.35.13h-.18c-.92,0-1.53-.09-1.83-.28-.29-.19-.44-.55-.44-1.08v-.1c0-.52.15-.87.46-1.06s.89-.27,1.74-.27h.19c.65,0,1.12.03,1.41.09.29.06.51.19.64.39h.03v-.34c0-.34-.01-.58-.04-.74-.03-.16-.11-.29-.24-.4-.13-.11-.31-.17-.52-.2-.21-.02-.54-.03-.98-.03h-.17c-.65,0-1.08.05-1.29.15-.21.1-.31.29-.31.58v.07h-.77v-.1c0-.51.17-.85.51-1.02.34-.17.97-.26,1.88-.26h.19c.39,0,.7,0,.95.02.25.02.47.05.68.11s.36.13.46.22c.1.09.19.22.27.39.07.17.12.36.15.58.02.21.03.48.03.81ZM138.08,57.16h.13c.75,0,1.25-.05,1.48-.16.23-.1.35-.32.35-.65v-.06c0-.33-.12-.54-.35-.63-.23-.09-.74-.13-1.53-.13h-.16c-.71,0-1.16.05-1.36.14s-.3.3-.3.63v.05c0,.35.1.57.31.66.2.09.68.14,1.44.14Z"/>
        <path class="cls-1" d="M147.69,51.37v6.31h-.76v-.73h-.02c-.14.31-.37.52-.69.63-.32.12-.82.17-1.52.17h-.13c-1.05,0-1.74-.14-2.06-.43-.32-.29-.49-.9-.49-1.83v-.12c0-.92.16-1.53.49-1.81.33-.28,1.01-.42,2.06-.42h.17c.66,0,1.15.05,1.47.16.32.11.54.32.67.62h.02v-2.56h.79ZM144.71,57.12h.22c.85,0,1.39-.1,1.62-.29.23-.19.35-.64.35-1.34v-.12c0-.7-.12-1.14-.35-1.33-.23-.18-.77-.27-1.62-.27h-.22c-.83,0-1.35.09-1.57.28-.22.19-.32.63-.32,1.32v.12c0,.7.11,1.15.33,1.34.22.19.74.29,1.56.29Z"/>
        <path class="cls-1" d="M149.99,56.61v1.31c0,.36-.07.6-.22.73s-.42.2-.83.2v-.48c.18,0,.3-.03.36-.09.06-.06.09-.17.09-.35v-.26h-.26v-1.06h.86Z"/>
        <path class="cls-1" d="M158.05,57.75h-.27c-.57,0-1.05-.01-1.41-.04-.37-.03-.7-.08-1.01-.17s-.53-.2-.7-.34-.3-.33-.41-.58c-.11-.25-.18-.53-.21-.84-.03-.31-.05-.7-.05-1.17v-.18c0-.47.02-.86.05-1.17.03-.31.1-.59.21-.84.11-.25.24-.44.4-.58.16-.13.39-.25.69-.33s.64-.15,1.01-.18c.37-.03.85-.05,1.42-.05h.27c1.03,0,1.78.05,2.26.16.48.1.81.28.98.54.17.25.26.65.26,1.2v.18h-.83v-.11c0-.37-.06-.64-.17-.79s-.35-.27-.72-.35c-.37-.07-.97-.11-1.81-.11h-.22c-.48,0-.86,0-1.14.02-.28.01-.55.06-.79.13-.25.07-.43.15-.54.25-.11.09-.21.24-.3.45s-.14.43-.16.67-.03.56-.03.96v.11c0,.4,0,.71.03.95.02.24.07.46.15.66.08.21.18.36.29.45s.29.18.54.25c.24.07.51.11.8.13.29.01.67.02,1.15.02h.22c.53,0,.95-.01,1.26-.03.31-.02.58-.06.8-.11.22-.05.38-.13.47-.24.09-.11.16-.23.19-.36.03-.13.05-.31.05-.55v-.09h.84v.2c0,.53-.09.92-.28,1.18-.19.26-.53.44-1.03.55-.5.11-1.26.17-2.28.17Z"/>
        <path class="cls-1" d="M165.79,57.75h-.26c-.61,0-1.09-.03-1.43-.08-.34-.06-.62-.17-.83-.34-.21-.17-.35-.39-.42-.67-.07-.27-.1-.65-.1-1.15v-.15c0-.93.17-1.54.52-1.81.35-.28,1.1-.41,2.25-.41h.26c1.15,0,1.89.14,2.24.41.34.27.51.88.51,1.82v.15c0,.49-.03.87-.1,1.15-.06.27-.2.5-.41.67-.21.17-.49.29-.83.34-.34.05-.81.08-1.41.08ZM165.55,57.12h.22c.46,0,.81-.02,1.06-.05s.44-.11.59-.24c.15-.12.25-.28.29-.47s.06-.47.06-.84v-.15c0-.37-.02-.65-.06-.84s-.13-.35-.29-.47c-.15-.12-.35-.2-.59-.24-.24-.03-.59-.05-1.06-.05h-.22c-.46,0-.81.02-1.06.05-.24.03-.44.11-.59.24-.15.12-.25.28-.29.47s-.06.47-.06.84v.15c0,.37.02.65.06.84s.13.35.29.47c.15.12.35.2.59.24s.59.05,1.06.05Z"/>
        <path class="cls-1" d="M175.28,55.09v2.58h-.79v-2.4c0-.62-.11-1.02-.32-1.2-.21-.18-.69-.27-1.44-.27h-.13c-.72,0-1.23.1-1.53.31-.31.21-.46.6-.46,1.16v2.4h-.79v-4.45h.79v.86h.02c.16-.33.39-.57.7-.72.31-.15.8-.22,1.47-.22h.15c.94,0,1.56.13,1.87.39.31.26.46.78.46,1.56Z"/>
        <path class="cls-1" d="M179.56,57.75h-.37c-.78,0-1.36-.04-1.73-.12-.37-.08-.62-.2-.76-.37-.13-.17-.2-.44-.2-.81v-.13h.79v.06c0,.23.04.39.11.49.07.09.23.16.49.21.26.05.68.07,1.27.07h.37c.72,0,1.17-.05,1.36-.14.19-.09.29-.29.29-.58v-.08c0-.19-.04-.33-.12-.42-.08-.09-.26-.15-.54-.2-.28-.05-.72-.07-1.33-.07-.75,0-1.31-.03-1.66-.1-.35-.07-.6-.18-.73-.35-.13-.16-.2-.43-.2-.78v-.11c0-.45.16-.77.49-.93.32-.17.95-.25,1.87-.25h.28c1.02,0,1.69.08,2.02.25.32.16.49.51.49,1.04v.1h-.77v-.07c0-.31-.1-.5-.3-.59-.2-.09-.66-.13-1.39-.13h-.26c-.5,0-.86.02-1.1.06-.23.04-.38.1-.45.17-.07.08-.11.21-.11.39v.08c0,.18.04.31.12.39.08.08.25.14.52.18.27.04.69.06,1.28.06,1.07,0,1.78.08,2.13.25s.52.5.52,1v.1c0,.51-.16.87-.49,1.06s-.97.29-1.91.29Z"/>
        <path class="cls-1" d="M188.61,53.22v4.45h-.79v-.88h-.01c-.16.34-.4.59-.7.74-.31.15-.8.22-1.48.22h-.15c-.93,0-1.56-.13-1.87-.4-.32-.27-.48-.79-.48-1.58v-2.55h.81v2.35c0,.63.11,1.05.32,1.24.21.19.69.29,1.44.29h.15c.72,0,1.23-.1,1.53-.31.3-.2.45-.6.45-1.18v-2.39h.79Z"/>
        <path class="cls-1" d="M190.85,51.37v6.31h-.79v-6.31h.79Z"/>
        <path class="cls-1" d="M194.58,57.75h-.21c-.71,0-1.18-.12-1.41-.37-.23-.25-.35-.76-.35-1.54v-2.05h-.88v-.57h.88v-1.16h.81v1.16h3.1v.57h-3.1v1.93c0,.6.06.99.19,1.15.13.16.42.24.89.24h.17c.5,0,.82-.07.95-.2.13-.13.2-.43.2-.89v-.35h.7v.47c0,.63-.13,1.06-.4,1.28-.27.22-.78.33-1.54.33Z"/>
        <path class="cls-1" d="M200.48,57.75h-.26c-.61,0-1.09-.03-1.43-.08-.34-.06-.62-.17-.83-.34-.21-.17-.35-.39-.42-.67-.07-.27-.1-.65-.1-1.15v-.15c0-.93.17-1.54.52-1.81.35-.28,1.1-.41,2.25-.41h.26c1.15,0,1.89.14,2.24.41.34.27.51.88.51,1.82v.15c0,.49-.03.87-.1,1.15-.06.27-.2.5-.41.67-.21.17-.49.29-.83.34-.34.05-.81.08-1.41.08ZM200.24,57.12h.22c.46,0,.81-.02,1.06-.05s.44-.11.59-.24c.15-.12.25-.28.29-.47s.06-.47.06-.84v-.15c0-.37-.02-.65-.06-.84s-.13-.35-.29-.47c-.15-.12-.35-.2-.59-.24-.24-.03-.59-.05-1.06-.05h-.22c-.46,0-.81.02-1.06.05-.24.03-.44.11-.59.24-.15.12-.25.28-.29.47s-.06.47-.06.84v.15c0,.37.02.65.06.84s.13.35.29.47c.15.12.35.2.59.24s.59.05,1.06.05Z"/>
        <path class="cls-1" d="M205.29,55.25v2.43h-.79v-4.45h.78v.93h.02c.14-.35.36-.61.65-.77.29-.16.73-.24,1.31-.24h.11c.78,0,1.28.1,1.51.3.23.2.35.58.35,1.15,0,.03,0,.08,0,.16,0,.07,0,.13,0,.17h-.73v-.2c0-.4-.09-.65-.26-.77-.17-.12-.57-.17-1.19-.17h-.09c-.57,0-.99.11-1.26.33-.27.22-.41.6-.41,1.15Z"/>
        <path class="cls-1" d="M210.99,53.22v4.45h-.79v-4.45h.79ZM212.15,51.6l-1.7,1.04-.23-.29,1.57-1.24.37.49Z"/>
        <path class="cls-1" d="M217.53,55.28v2.39h-.79v-.53h-.02c-.16.22-.39.38-.68.47-.29.09-.74.13-1.35.13h-.18c-.92,0-1.53-.09-1.83-.28-.29-.19-.44-.55-.44-1.08v-.1c0-.52.15-.87.46-1.06s.89-.27,1.74-.27h.19c.65,0,1.12.03,1.41.09.29.06.51.19.64.39h.03v-.34c0-.34-.01-.58-.04-.74-.03-.16-.11-.29-.24-.4-.13-.11-.31-.17-.52-.2-.21-.02-.54-.03-.98-.03h-.17c-.65,0-1.08.05-1.29.15-.21.1-.31.29-.31.58v.07h-.77v-.1c0-.51.17-.85.51-1.02.34-.17.97-.26,1.88-.26h.19c.39,0,.7,0,.95.02.25.02.47.05.68.11s.36.13.46.22c.1.09.19.22.27.39.07.17.12.36.15.58.02.21.03.48.03.81ZM214.78,57.16h.13c.75,0,1.25-.05,1.48-.16.23-.1.35-.32.35-.65v-.06c0-.33-.12-.54-.35-.63-.23-.09-.74-.13-1.53-.13h-.16c-.71,0-1.16.05-1.36.14s-.3.3-.3.63v.05c0,.35.1.57.31.66.2.09.68.14,1.44.14Z"/>
        <path class="cls-1" d="M221.59,59.27v-.61c.09,0,.24.01.46.01.38,0,.67-.06.86-.18.19-.12.44-.42.73-.9h-.29l-2.45-4.36h.86l2.12,3.79h.02l1.96-3.79h.84l-2.04,3.87c-.34.66-.64,1.15-.89,1.46-.25.31-.48.51-.69.6-.21.09-.51.13-.88.13-.28,0-.49,0-.62-.01Z"/>
        <path class="cls-1" d="M234.19,51.37l3.53,6.31h-.93l-.76-1.39h-4.91l-.77,1.39h-.92l3.65-6.31h1.11ZM231.5,55.65h4.19l-2.01-3.67h-.09l-2.09,3.67Z"/>
        <path class="cls-1" d="M243.88,53.22v4.45h-.79v-.88h-.01c-.16.34-.4.59-.7.74-.31.15-.8.22-1.48.22h-.15c-.93,0-1.56-.13-1.87-.4-.32-.27-.48-.79-.48-1.58v-2.55h.81v2.35c0,.63.11,1.05.32,1.24.21.19.69.29,1.44.29h.15c.72,0,1.23-.1,1.53-.31.3-.2.45-.6.45-1.18v-2.39h.79Z"/>
        <path class="cls-1" d="M250.8,51.37v6.31h-.76v-.73h-.02c-.14.31-.37.52-.69.63-.32.12-.82.17-1.52.17h-.13c-1.05,0-1.74-.14-2.06-.43-.32-.29-.49-.9-.49-1.83v-.12c0-.92.16-1.53.49-1.81.33-.28,1.01-.42,2.06-.42h.17c.66,0,1.15.05,1.47.16.32.11.54.32.67.62h.02v-2.56h.79ZM247.82,57.12h.22c.85,0,1.39-.1,1.62-.29.23-.19.35-.64.35-1.34v-.12c0-.7-.12-1.14-.35-1.33-.23-.18-.77-.27-1.62-.27h-.22c-.83,0-1.35.09-1.57.28-.22.19-.32.63-.32,1.32v.12c0,.7.11,1.15.33,1.34.22.19.74.29,1.56.29Z"/>
        <path class="cls-1" d="M253.05,51.37v.87h-.79v-.87h.79ZM253.05,53.22v4.45h-.79v-4.45h.79Z"/>
        <path class="cls-1" d="M256.77,57.75h-.21c-.71,0-1.18-.12-1.41-.37-.23-.25-.35-.76-.35-1.54v-2.05h-.88v-.57h.88v-1.16h.81v1.16h3.1v.57h-3.1v1.93c0,.6.06.99.19,1.15.13.16.42.24.89.24h.17c.5,0,.82-.07.95-.2.13-.13.2-.43.2-.89v-.35h.7v.47c0,.63-.13,1.06-.4,1.28-.27.22-.78.33-1.54.33Z"/>
        <path class="cls-1" d="M262.68,57.75h-.26c-.61,0-1.09-.03-1.43-.08-.34-.06-.62-.17-.83-.34-.21-.17-.35-.39-.42-.67-.07-.27-.1-.65-.1-1.15v-.15c0-.93.17-1.54.52-1.81.35-.28,1.1-.41,2.25-.41h.26c1.15,0,1.89.14,2.24.41.34.27.51.88.51,1.82v.15c0,.49-.03.87-.1,1.15-.06.27-.2.5-.41.67-.21.17-.49.29-.83.34-.34.05-.81.08-1.41.08ZM262.43,57.12h.22c.46,0,.81-.02,1.06-.05s.44-.11.59-.24c.15-.12.25-.28.29-.47s.06-.47.06-.84v-.15c0-.37-.02-.65-.06-.84s-.13-.35-.29-.47c-.15-.12-.35-.2-.59-.24-.24-.03-.59-.05-1.06-.05h-.22c-.46,0-.81.02-1.06.05-.24.03-.44.11-.59.24-.15.12-.25.28-.29.47s-.06.47-.06.84v.15c0,.37.02.65.06.84s.13.35.29.47c.15.12.35.2.59.24s.59.05,1.06.05Z"/>
        <path class="cls-1" d="M267.48,55.25v2.43h-.79v-4.45h.78v.93h.02c.14-.35.36-.61.65-.77.29-.16.73-.24,1.31-.24h.11c.78,0,1.28.1,1.51.3.23.2.35.58.35,1.15,0,.03,0,.08,0,.16,0,.07,0,.13,0,.17h-.73v-.2c0-.4-.09-.65-.26-.77-.17-.12-.57-.17-1.19-.17h-.09c-.57,0-.99.11-1.26.33-.27.22-.41.6-.41,1.15Z"/>
        <path class="cls-1" d="M273.18,53.22v4.45h-.79v-4.45h.79ZM274.34,51.6l-1.7,1.04-.23-.29,1.57-1.24.37.49Z"/>
        <path class="cls-1" d="M279.72,55.28v2.39h-.79v-.53h-.02c-.16.22-.39.38-.68.47-.29.09-.74.13-1.35.13h-.18c-.92,0-1.53-.09-1.83-.28-.29-.19-.44-.55-.44-1.08v-.1c0-.52.15-.87.46-1.06s.89-.27,1.74-.27h.19c.65,0,1.12.03,1.41.09.29.06.51.19.64.39h.03v-.34c0-.34-.01-.58-.04-.74-.03-.16-.11-.29-.24-.4-.13-.11-.31-.17-.52-.2-.21-.02-.54-.03-.98-.03h-.17c-.65,0-1.08.05-1.29.15-.21.1-.31.29-.31.58v.07h-.77v-.1c0-.51.17-.85.51-1.02.34-.17.97-.26,1.88-.26h.19c.39,0,.7,0,.95.02.25.02.47.05.68.11s.36.13.46.22c.1.09.19.22.27.39.07.17.12.36.15.58.02.21.03.48.03.81ZM276.97,57.16h.13c.75,0,1.25-.05,1.48-.16.23-.1.35-.32.35-.65v-.06c0-.33-.12-.54-.35-.63-.23-.09-.74-.13-1.53-.13h-.16c-.71,0-1.16.05-1.36.14s-.3.3-.3.63v.05c0,.35.1.57.31.66.2.09.68.14,1.44.14Z"/>
      </g>
      <g>
        <g>
          <path class="cls-4" d="M68.06,32.64v-4.25h11.95v14.26h-10.87c-2.01,0-3.55-.16-4.62-.49-1.07-.33-2.08-.87-3.02-1.62-1.23-.98-2.16-2.26-2.77-3.83-.62-1.58-.92-3.46-.92-5.65,0-4.24.92-7.38,2.77-9.4,1.85-2.03,4.7-3.04,8.56-3.04h10.87v4.14h-10.87c-1.98,0-3.43.64-4.34,1.93-.91,1.29-1.37,3.34-1.37,6.15,0,2.63.45,4.53,1.36,5.71.9,1.18,2.35,1.77,4.35,1.77h5.69v-5.66h-6.77Z"/>
          <path class="cls-4" d="M94.56,42.65c-2.25,0-3.91-.19-5-.56-1.09-.38-2.07-1.03-2.93-1.95-.8-.83-1.36-1.77-1.68-2.81-.33-1.05-.49-2.52-.49-4.42v-14.29h5.05v14.13c0,1.41.06,2.4.19,2.97.13.57.34,1.03.65,1.38.48.57,1.07.97,1.77,1.21.7.24,1.66.36,2.89.36h5.95v3.99h-6.39Z"/>
          <path class="cls-4" d="M101.74,30.39c0-4.13.99-7.21,2.97-9.22,1.98-2.02,4.99-3.03,9.03-3.03s7.09,1.02,9.05,3.06c1.96,2.04,2.93,5.18,2.93,9.44s-.98,7.4-2.93,9.45-4.97,3.07-9.05,3.07-7.15-1.03-9.09-3.09c-1.94-2.06-2.91-5.29-2.91-9.68ZM113.73,22.26c-2.17,0-3.79.68-4.86,2.03-1.07,1.35-1.61,3.4-1.61,6.13,0,2.96.52,5.14,1.56,6.52,1.04,1.38,2.68,2.07,4.91,2.07s3.83-.68,4.89-2.05,1.59-3.47,1.59-6.32-.53-4.97-1.59-6.33-2.69-2.04-4.89-2.04Z"/>
          <path class="cls-4" d="M143.25,42.65h-13.23v-24.04h12.35c1.56,0,2.83.09,3.8.26.98.17,1.76.45,2.36.83.88.56,1.56,1.28,2.02,2.16.46.88.69,1.89.69,3.01,0,1.34-.29,2.48-.87,3.41-.58.93-1.48,1.71-2.71,2.35,1.24.52,2.16,1.23,2.76,2.12.59.89.89,2,.89,3.34,0,2.25-.65,3.9-1.96,4.96-1.31,1.06-3.34,1.59-6.1,1.59ZM135.07,22.93v5.56h7.39c1.14,0,1.98-.23,2.52-.68.53-.45.8-1.15.8-2.1s-.27-1.66-.8-2.11c-.53-.45-1.37-.67-2.52-.67h-7.39ZM142.54,38.4c1.16,0,2-.23,2.52-.68.52-.45.78-1.16.78-2.13s-.26-1.7-.79-2.16c-.53-.46-1.37-.69-2.51-.69h-7.47v5.66h7.47Z"/>
          <path class="cls-4" d="M163.02,18.61h5.36l10.25,24.04h-5.63l-2.21-5.72h-10.45l-2.14,5.72h-5.36l10.17-24.04ZM165.5,23.39l-3.52,9.26h7.16l-3.65-9.26Z"/>
          <path class="cls-4" d="M190.69,42.65c-2.25,0-3.91-.19-5-.56-1.09-.38-2.07-1.03-2.93-1.95-.8-.83-1.36-1.77-1.68-2.81-.33-1.05-.49-2.52-.49-4.42v-14.29h5.05v14.13c0,1.41.06,2.4.19,2.97.13.57.34,1.03.65,1.38.48.57,1.07.97,1.77,1.21.7.24,1.66.36,2.89.36h5.95v3.99h-6.39Z"/>
        </g>
        <g>
          <path class="cls-3" d="M212.32,32.64v-4.25h11.95v14.26h-10.87c-2.01,0-3.55-.16-4.62-.49-1.07-.33-2.08-.87-3.02-1.62-1.23-.98-2.16-2.26-2.77-3.83-.62-1.58-.92-3.46-.92-5.65,0-4.24.92-7.38,2.77-9.4,1.85-2.03,4.7-3.04,8.56-3.04h10.87v4.14h-10.87c-1.98,0-3.43.64-4.34,1.93-.91,1.29-1.37,3.34-1.37,6.15,0,2.63.45,4.53,1.36,5.71.9,1.18,2.35,1.77,4.35,1.77h5.69v-5.66h-6.77Z"/>
          <path class="cls-3" d="M236.78,18.61h5.36l10.25,24.04h-5.63l-2.21-5.72h-10.45l-2.14,5.72h-5.36l10.17-24.04ZM239.27,23.39l-3.52,9.26h7.16l-3.65-9.26Z"/>
          <path class="cls-3" d="M263.03,18.61h5.36l10.25,24.04h-5.63l-2.21-5.72h-10.45l-2.14,5.72h-5.36l10.17-24.04ZM265.52,23.39l-3.52,9.26h7.16l-3.65-9.26Z"/>
          <path class="cls-3" d="M281.17,18.61h10.97c1.85,0,3.33.09,4.43.29,1.1.19,1.98.49,2.63.91,1.09.7,1.92,1.61,2.48,2.74.56,1.13.84,2.43.84,3.9s-.23,2.67-.69,3.7-1.16,1.88-2.09,2.56c-.78.56-1.69.95-2.71,1.19-1.02.23-2.58.35-4.69.35h-6.13v8.41h-5.05v-24.04ZM292.08,22.9h-5.85v7.1h6.17c1.53,0,2.66-.29,3.4-.88.74-.58,1.11-1.47,1.11-2.67,0-1.29-.36-2.2-1.09-2.74-.73-.54-1.97-.81-3.74-.81Z"/>
        </g>
      </g>
      <g>
        <path class="cls-1" d="M31.62,10.35c-.46-.21-.89-.45-1.3-.73-.21-.14-.42-.28-.64-.4-4.43-2.41-7.7-5.4-9.12-9.23l-2.75,8.76C7.29,10.9-.53,20.45.03,31.72c.55,11.18,9.52,20.35,20.69,21.11,13.02.89,23.85-9.41,23.85-22.24,0-8.98-5.31-16.71-12.95-20.25ZM4.82,30.6c0-9.48,7.64-17.18,17.09-17.28l-1.38,10.46,3.88-3.53c1.46-1.33,3.38-2.08,5.35-1.99,1.47.06,3.05.73,4.56,1.87,0,0,3.72,3,4.83,7.61,0,0,0,.01,0,.02.16.92.24,1.87.24,2.84,0,9.55-7.74,17.29-17.29,17.29S4.82,40.15,4.82,30.6Z"/>
        <path class="cls-2" d="M22.11,47.89c-9.55,0-17.29-7.74-17.29-17.29S12.46,13.42,21.91,13.32l-1.38,10.46,3.88-3.53c1.46-1.33,3.38-2.08,5.35-1.99,1.47.06,3.05.73,4.56,1.87,0,0,3.72,3,4.83,7.61,0,0,0,.01,0,.02.16.92.24,1.87.24,2.84,0,9.55-7.74,17.29-17.29,17.29Z"/>
      </g>
    </g>
  </g>
</svg>