<svg width="27" height="32" viewBox="0 0 27 32" fill="none" xmlns="http://www.w3.org/2000/svg">
<path d="M19.1287 6.26767C18.8504 6.14062 18.5902 5.99543 18.3422 5.82603C18.2151 5.74133 18.0881 5.65663 17.955 5.58404C15.2749 4.12602 13.2966 2.3171 12.4375 0L10.7738 5.29969C4.40932 6.60041 -0.321683 12.378 0.0171105 19.1963C0.349854 25.96 5.77659 31.5078 12.5343 31.9675C20.4112 32.506 26.9633 26.2746 26.9633 18.5126C26.9633 13.0798 23.7508 8.40328 19.1287 6.26162V6.26767ZM2.915 18.5187C2.915 12.7834 7.53711 8.12498 13.2542 8.06448L12.4194 14.3927L14.7667 12.257C15.65 11.4524 16.8116 10.9987 18.0034 11.0531C18.8927 11.0894 19.8486 11.4948 20.7621 12.1844C20.7621 12.1844 23.0127 13.9994 23.6842 16.7884C23.6842 16.7884 23.6842 16.7945 23.6842 16.8005C23.781 17.3571 23.8294 17.9318 23.8294 18.5187C23.8294 24.2963 19.1468 28.9789 13.3692 28.9789C7.59155 28.9789 2.915 24.2963 2.915 18.5187Z" fill="#FFFFFF"/>
</svg>
