<svg width="34" height="34" viewBox="0 0 34 34" fill="none" xmlns="http://www.w3.org/2000/svg">
<rect x="0.5" y="0.5" width="33" height="33" rx="7.5" stroke="white"/>
<path fill-rule="evenodd" clip-rule="evenodd" d="M12.548 8.66695C13.4788 8.67945 14.1421 9.37695 14.9813 10.2595C15.1888 10.477 15.413 10.7145 15.6638 10.9645C16.8796 12.1811 16.5338 13.1736 16.2546 13.9703C15.9513 14.8395 15.6888 15.5895 17.2605 17.1611C18.8321 18.7328 19.5813 18.4703 20.4496 18.1645C21.2471 17.8861 22.2371 17.5378 23.4555 18.7545C23.703 19.002 23.9363 19.2236 24.153 19.4295C25.0388 20.2728 25.7388 20.9386 25.7506 21.872C25.7596 22.667 25.2763 23.4786 24.083 24.672L23.5546 24.3136L24.0021 24.7495C23.738 25.0203 23.0355 25.742 21.6596 25.7503H21.6346C19.558 25.7503 16.8505 24.097 13.5871 20.8345C10.3105 17.5586 8.65463 14.8428 8.66706 12.762C8.67463 11.387 9.39547 10.6828 9.6663 10.4186L9.68942 10.3934L9.74547 10.337C10.9413 9.14112 11.763 8.64945 12.548 8.66695ZM12.5321 9.91695H12.5255C12.1512 9.91695 11.5829 10.292 10.7903 11.0619L10.6312 11.2182L10.633 11.2178C10.633 11.2178 10.6194 11.2334 10.5962 11.257L10.5405 11.3128C10.3388 11.5086 9.9213 11.9161 9.91709 12.7686C9.91047 13.9611 10.6946 16.1753 14.4705 19.9503C18.228 23.707 20.4388 24.5003 21.6346 24.5003H21.6521C22.5046 24.4953 22.9113 24.0778 23.1071 23.877C23.1663 23.8161 23.2146 23.7703 23.2488 23.7428C24.0796 22.907 24.5046 22.2861 24.5005 21.887C24.4955 21.4803 23.9896 21.0003 23.2905 20.3345C23.068 20.1236 22.8263 19.8928 22.5713 19.6378C21.9096 18.9786 21.5838 19.0911 20.863 19.3445C19.8671 19.6936 18.503 20.172 16.3771 18.0445C14.2505 15.9186 14.7271 14.5545 15.0746 13.5578C15.3263 12.8378 15.4413 12.5103 14.7805 11.8486C14.5221 11.5903 14.2896 11.3453 14.0755 11.1203C13.4138 10.4253 12.9363 9.92279 12.5321 9.91695ZM19.7055 11.6315C21.4397 11.9682 22.7789 13.3065 23.1164 15.0415C23.1822 15.3815 22.9614 15.709 22.623 15.7749C22.5822 15.7824 22.5422 15.7865 22.5022 15.7865C22.2089 15.7865 21.948 15.5799 21.8897 15.2815C21.6497 14.0482 20.6989 13.0974 19.4672 12.8582C19.128 12.7924 18.9072 12.4649 18.9731 12.1257C19.0389 11.7865 19.3722 11.5649 19.7055 11.6315ZM19.6556 8.6717C23.054 9.0492 25.6931 11.685 26.074 15.0825C26.1123 15.4259 25.8656 15.735 25.5231 15.7734C25.4998 15.7759 25.4756 15.7775 25.4523 15.7775C25.1381 15.7775 24.8681 15.5417 24.8323 15.2225C24.5165 12.4092 22.3315 10.2259 19.5173 9.91337C19.1748 9.87504 18.9273 9.5667 18.9656 9.22337C19.0031 8.88087 19.309 8.62837 19.6556 8.6717Z" fill="white"/>
</svg>
